<svg width="16" height="16" viewBox="0 0 16 16" fill="none" xmlns="http://www.w3.org/2000/svg">
<path d="M11.9987 5.33268V3.99935C11.9987 3.64573 11.8582 3.30659 11.6082 3.05654C11.3581 2.80649 11.019 2.66602 10.6654 2.66602H2.66536C2.31174 2.66602 1.9726 2.80649 1.72256 3.05654C1.47251 3.30659 1.33203 3.64573 1.33203 3.99935V8.66602C1.33203 9.01964 1.47251 9.35878 1.72256 9.60882C1.9726 9.85887 2.31174 9.99935 2.66536 9.99935H7.9987" stroke="#2E3338" stroke-width="1.33333" stroke-linecap="round" stroke-linejoin="round"/>
<path d="M6.66406 12.6664V10.0264V12.1264" stroke="#2E3338" stroke-width="1.33333" stroke-linecap="round" stroke-linejoin="round"/>
<path d="M4.66406 12.667H7.9974" stroke="#2E3338" stroke-width="1.33333" stroke-linecap="round" stroke-linejoin="round"/>
<path d="M13.3307 8H11.9974C11.261 8 10.6641 8.59695 10.6641 9.33333V13.3333C10.6641 14.0697 11.261 14.6667 11.9974 14.6667H13.3307C14.0671 14.6667 14.6641 14.0697 14.6641 13.3333V9.33333C14.6641 8.59695 14.0671 8 13.3307 8Z" stroke="#2E3338" stroke-width="1.33333" stroke-linecap="round" stroke-linejoin="round"/>
</svg>
