<svg width="14" height="14" viewBox="0 0 14 14" fill="none" xmlns="http://www.w3.org/2000/svg">
<g clip-path="url(#clip0_2868_40309)">
<path d="M4.66536 12.8334C4.98753 12.8334 5.2487 12.5722 5.2487 12.2501C5.2487 11.9279 4.98753 11.6667 4.66536 11.6667C4.3432 11.6667 4.08203 11.9279 4.08203 12.2501C4.08203 12.5722 4.3432 12.8334 4.66536 12.8334Z" stroke="#5C6670" stroke-width="1.33" stroke-linecap="round" stroke-linejoin="round"/>
<path d="M11.0833 12.8334C11.4055 12.8334 11.6667 12.5722 11.6667 12.2501C11.6667 11.9279 11.4055 11.6667 11.0833 11.6667C10.7612 11.6667 10.5 11.9279 10.5 12.2501C10.5 12.5722 10.7612 12.8334 11.0833 12.8334Z" stroke="#5C6670" stroke-width="1.33" stroke-linecap="round" stroke-linejoin="round"/>
<path d="M1.19531 1.19604H2.36198L3.91365 8.44104C3.97057 8.70638 4.1182 8.94357 4.33114 9.1118C4.54408 9.28002 4.80901 9.36875 5.08031 9.36271H10.7853C11.0508 9.36228 11.3083 9.2713 11.5151 9.10478C11.7219 8.93827 11.8657 8.70619 11.9228 8.44688L12.8853 4.11271H2.98615" stroke="#5C6670" stroke-width="1.33" stroke-linecap="round" stroke-linejoin="round"/>
</g>
<defs>
<clipPath id="clip0_2868_40309">
<rect width="14" height="14" fill="white"/>
</clipPath>
</defs>
</svg>
