<svg width="16" height="16" viewBox="0 0 16 16" fill="none" xmlns="http://www.w3.org/2000/svg">
<g clip-path="url(#clip0_2623_75935)">
<g clip-path="url(#clip1_2623_75935)">
<path d="M8.00016 1.33203V2.9987M8.00016 1.33203C4.31826 1.33203 1.3335 4.3168 1.3335 7.9987M8.00016 1.33203C11.6821 1.33203 14.6668 4.3168 14.6668 7.9987M8.00016 12.9987V14.6654M8.00016 14.6654C11.6821 14.6654 14.6668 11.6806 14.6668 7.9987M8.00016 14.6654C4.31826 14.6654 1.3335 11.6806 1.3335 7.9987M3.00016 7.9987H1.3335M14.6668 7.9987H13.0002M12.7191 12.7176L11.5366 11.5352M3.28125 12.7176L4.46493 11.534M3.28125 3.33203L4.43888 4.48966M12.7191 3.33203L9.0001 6.9987M9.3335 7.9987C9.3335 8.73508 8.73654 9.33203 8.00016 9.33203C7.26378 9.33203 6.66683 8.73508 6.66683 7.9987C6.66683 7.26232 7.26378 6.66536 8.00016 6.66536C8.73654 6.66536 9.3335 7.26232 9.3335 7.9987Z" stroke="#7F7F7F" stroke-linecap="round" stroke-linejoin="round"/>
</g>
</g>
<defs>
<clipPath id="clip0_2623_75935">
<rect width="16" height="16" fill="white"/>
</clipPath>
<clipPath id="clip1_2623_75935">
<rect width="16" height="16" fill="white"/>
</clipPath>
</defs>
</svg>
