<svg width="20" height="20" viewBox="0 0 20 20" fill="none" xmlns="http://www.w3.org/2000/svg">
<g clip-path="url(#clip0_3775_67895)">
<g clip-path="url(#clip1_3775_67895)">
<path d="M4.16699 12.5013C3.39042 12.5013 3.00214 12.5013 2.69585 12.3744C2.28747 12.2053 1.96302 11.8808 1.79386 11.4724C1.66699 11.1662 1.66699 10.7779 1.66699 10.0013V4.33464C1.66699 3.40121 1.66699 2.9345 1.84865 2.57798C2.00844 2.26438 2.2634 2.00941 2.57701 1.84962C2.93353 1.66797 3.40024 1.66797 4.33366 1.66797H10.0003C10.7769 1.66797 11.1652 1.66797 11.4715 1.79484C11.8798 1.96399 12.2043 2.28845 12.3735 2.69683C12.5003 3.00311 12.5003 3.3914 12.5003 4.16797M10.167 18.3346H15.667C16.6004 18.3346 17.0671 18.3346 17.4236 18.153C17.7372 17.9932 17.9922 17.7382 18.152 17.4246C18.3337 17.0681 18.3337 16.6014 18.3337 15.668V10.168C18.3337 9.23455 18.3337 8.76784 18.152 8.41132C17.9922 8.09771 17.7372 7.84275 17.4236 7.68296C17.0671 7.5013 16.6004 7.5013 15.667 7.5013H10.167C9.23357 7.5013 8.76686 7.5013 8.41034 7.68296C8.09674 7.84275 7.84177 8.09771 7.68198 8.41132C7.50033 8.76784 7.50033 9.23455 7.50033 10.168V15.668C7.50033 16.6014 7.50033 17.0681 7.68198 17.4246C7.84177 17.7382 8.09674 17.9932 8.41034 18.153C8.76686 18.3346 9.23357 18.3346 10.167 18.3346Z" stroke="#363636" stroke-width="1.5" stroke-linecap="round" stroke-linejoin="round"/>
</g>
</g>
<defs>
<clipPath id="clip0_3775_67895">
<rect width="20" height="20" fill="white"/>
</clipPath>
<clipPath id="clip1_3775_67895">
<rect width="20" height="20" fill="white"/>
</clipPath>
</defs>
</svg>
