<svg width="16" height="16" viewBox="0 0 16 16" fill="none" xmlns="http://www.w3.org/2000/svg">
<g clip-path="url(#clip0_2565_32865)">
<g clip-path="url(#clip1_2565_32865)">
<path d="M6.00016 1.33203V0.332031M3.37394 2.37247L2.66683 1.66536M3.37394 7.66536L2.66683 8.37247M8.66683 2.37247L9.37394 1.66536M2.3335 4.9987H1.3335M10.5765 9.79175L8.91532 12.8767C8.72555 13.2292 8.63066 13.4054 8.5165 13.4499C8.41742 13.4886 8.30584 13.4777 8.21615 13.4205C8.11279 13.3547 8.05387 13.1634 7.93604 12.7809L5.63029 5.29553C5.53403 4.98303 5.4859 4.82679 5.52463 4.72125C5.55836 4.62933 5.6308 4.55689 5.72272 4.52316C5.82825 4.48444 5.9845 4.53257 6.297 4.62883L13.7823 6.9346C14.1648 7.05243 14.3561 7.11135 14.422 7.21471C14.4791 7.3044 14.4901 7.41599 14.4514 7.51506C14.4068 7.62922 14.2306 7.72411 13.8782 7.91388L10.7932 9.57502C10.7408 9.60322 10.7147 9.61732 10.6917 9.63543C10.6714 9.65152 10.653 9.66992 10.6369 9.69027C10.6188 9.71319 10.6047 9.73938 10.5765 9.79175Z" stroke="#7F7F7F" stroke-linecap="round" stroke-linejoin="round"/>
</g>
</g>
<defs>
<clipPath id="clip0_2565_32865">
<rect width="16" height="16" fill="white"/>
</clipPath>
<clipPath id="clip1_2565_32865">
<rect width="16" height="16" fill="white"/>
</clipPath>
</defs>
</svg>
