<svg width="42" height="41" viewBox="0 0 42 41" fill="none" xmlns="http://www.w3.org/2000/svg">
<rect x="0.5" width="41" height="41" rx="20.5" fill="#FE812F"/>
<path d="M17.5 12V10.5M13.5607 13.5607L12.5 12.5M13.5607 21.5L12.5 22.5607M21.5 13.5607L22.5607 12.5M12 17.5H10.5M24.3645 24.6896L21.8727 29.317C21.5881 29.8457 21.4457 30.11 21.2745 30.1769C21.1259 30.2349 20.9585 30.2185 20.824 30.1328C20.6689 30.034 20.5806 29.7471 20.4038 29.1733L16.9452 17.9453C16.8008 17.4765 16.7286 17.2421 16.7867 17.0838C16.8373 16.946 16.946 16.8373 17.0838 16.7867C17.2421 16.7286 17.4765 16.8008 17.9452 16.9452L29.1732 20.4038C29.747 20.5806 30.0339 20.669 30.1327 20.824C30.2185 20.9586 30.2348 21.1259 30.1768 21.2745C30.11 21.4458 29.8456 21.5881 29.317 21.8728L24.6896 24.3645C24.611 24.4068 24.5717 24.4279 24.5374 24.4551C24.5068 24.4792 24.4792 24.5068 24.4551 24.5374C24.4279 24.5717 24.4068 24.611 24.3645 24.6896Z" stroke="#FBFBFB" stroke-width="2" stroke-linecap="round" stroke-linejoin="round"/>
</svg>
