<svg width="20" height="20" viewBox="0 0 20 20" fill="none" xmlns="http://www.w3.org/2000/svg">
<g clip-path="url(#clip0_2565_27360)">
<path d="M17.4998 13.332V5.9987C17.4998 5.06528 17.4998 4.59857 17.3182 4.24205C17.1584 3.92844 16.9034 3.67348 16.5898 3.51369C16.2333 3.33203 15.7666 3.33203 14.8332 3.33203H5.1665C4.23308 3.33203 3.76637 3.33203 3.40985 3.51369C3.09625 3.67348 2.84128 3.92844 2.68149 4.24205C2.49984 4.59857 2.49984 5.06528 2.49984 5.9987V13.332M3.88873 16.6654H16.1109C16.6276 16.6654 16.8859 16.6654 17.0979 16.6086C17.673 16.4545 18.1223 16.0052 18.2764 15.4301C18.3332 15.2181 18.3332 14.9598 18.3332 14.4431C18.3332 14.1848 18.3332 14.0557 18.3048 13.9497C18.2277 13.6621 18.0031 13.4375 17.7155 13.3604C17.6095 13.332 17.4804 13.332 17.2221 13.332H2.77761C2.51929 13.332 2.39013 13.332 2.28415 13.3604C1.99658 13.4375 1.77195 13.6621 1.6949 13.9497C1.6665 14.0557 1.6665 14.1848 1.6665 14.4431C1.6665 14.9598 1.6665 15.2181 1.72329 15.4301C1.87741 16.0052 2.32665 16.4545 2.90181 16.6086C3.11375 16.6654 3.37208 16.6654 3.88873 16.6654Z" stroke="#363636" stroke-width="1.5" stroke-linecap="round" stroke-linejoin="round"/>
</g>
<defs>
<clipPath id="clip0_2565_27360">
<rect width="20" height="20" fill="white"/>
</clipPath>
</defs>
</svg>
