<svg width="42" height="41" viewBox="0 0 42 41" fill="none" xmlns="http://www.w3.org/2000/svg">
<rect x="0.5" width="41" height="41" rx="20.5" fill="#2EC666"/>
<path d="M30 18V16.3C30 14.6198 30 13.7798 29.673 13.138C29.3854 12.5735 28.9265 12.1146 28.362 11.827C27.7202 11.5 26.8802 11.5 25.2 11.5H16.8C15.1198 11.5 14.2798 11.5 13.638 11.827C13.0735 12.1146 12.6146 12.5735 12.327 13.138C12 13.7798 12 14.6198 12 16.3V24.7C12 26.3802 12 27.2202 12.327 27.862C12.6146 28.4265 13.0735 28.8854 13.638 29.173C14.2798 29.5 15.1198 29.5 16.8 29.5H18.5M26.3862 26.2113L24.6879 29.3653C24.4103 29.8808 24.2715 30.1386 24.1023 30.2059C23.9555 30.2643 23.7896 30.2498 23.6551 30.1668C23.5001 30.0712 23.4081 29.7933 23.2241 29.2375L20.5004 21.0113C20.3392 20.5245 20.2586 20.2812 20.3166 20.1191C20.367 19.978 20.478 19.867 20.6191 19.8166C20.7812 19.7586 21.0245 19.8392 21.5113 20.0004L29.7374 22.7241C30.2933 22.9082 30.5712 23.0002 30.6668 23.1551C30.7498 23.2897 30.7642 23.4555 30.7058 23.6024C30.6386 23.7715 30.3808 23.9103 29.8652 24.1879L26.7113 25.8862C26.6328 25.9285 26.5935 25.9497 26.5591 25.9768C26.5286 26.001 26.501 26.0286 26.4768 26.0591C26.4497 26.0935 26.4285 26.1328 26.3862 26.2113Z" stroke="white" stroke-width="2" stroke-linecap="round" stroke-linejoin="round"/>
</svg>
