<svg width="20" height="20" viewBox="0 0 20 20" fill="none" xmlns="http://www.w3.org/2000/svg">
<g clip-path="url(#clip0_2565_27326)">
<path d="M11.4998 1.66797V1.83464C11.4998 2.30135 11.4998 2.5347 11.409 2.71296C11.3291 2.86976 11.2016 2.99725 11.0448 3.07714C10.8666 3.16797 10.6332 3.16797 10.1665 3.16797H9.83317C9.36646 3.16797 9.13311 3.16797 8.95485 3.07714C8.79804 2.99725 8.67056 2.86976 8.59067 2.71296C8.49984 2.5347 8.49984 2.30135 8.49984 1.83464V1.66797M7.83317 18.3346C8.76659 18.3346 12.1665 18.3346 12.1665 18.3346C13.0999 18.3346 13.5666 18.3346 13.9232 18.153C14.2368 17.9932 14.4917 17.7382 14.6515 17.4246C14.8332 17.0681 14.8332 16.6014 14.8332 15.668V4.33464C14.8332 3.40121 14.8332 2.9345 14.6515 2.57798C14.4917 2.26438 14.2368 2.00941 13.9232 1.84962C13.5666 1.66797 13.5703 1.66797 13.1665 1.66797H6.83317C6.42578 1.66797 6.43304 1.66797 6.07652 1.84962C5.76292 2.00941 5.50795 2.26438 5.34816 2.57798C5.1665 2.9345 5.1665 3.40121 5.1665 4.33464V15.668C5.1665 16.6014 5.1665 17.0681 5.34816 17.4246C5.50795 17.7382 5.76292 17.9932 6.07652 18.153C6.43304 18.3346 6.89975 18.3346 7.83317 18.3346Z" stroke="#363636" stroke-width="1.5" stroke-linecap="round" stroke-linejoin="round"/>
</g>
<defs>
<clipPath id="clip0_2565_27326">
<rect width="20" height="20" fill="white"/>
</clipPath>
</defs>
</svg>
