<svg width="37" height="36" viewBox="0 0 37 36" fill="none" xmlns="http://www.w3.org/2000/svg">
<rect x="5.83333" y="5.33333" width="25.3333" height="25.3333" rx="12.6667" fill="white"/>
<rect x="5.83333" y="5.33333" width="25.3333" height="25.3333" rx="12.6667" stroke="#E3E6E8" stroke-width="1.33333"/>
<path d="M19.6796 13.3911L18.5129 14.4994" stroke="#2E3338" stroke-width="1.33" stroke-linecap="round" stroke-linejoin="round"/>
<path d="M14.4761 15.6659L12.7844 15.1992" stroke="#2E3338" stroke-width="1.33" stroke-linecap="round" stroke-linejoin="round"/>
<path d="M15.0002 18L13.8918 19.1667" stroke="#2E3338" stroke-width="1.33" stroke-linecap="round" stroke-linejoin="round"/>
<path d="M15.6965 12.2837L16.1632 13.9754" stroke="#2E3338" stroke-width="1.33" stroke-linecap="round" stroke-linejoin="round"/>
<path d="M16.7724 16.6525C16.7497 16.5993 16.7436 16.5404 16.7546 16.4836C16.7656 16.4268 16.7934 16.3746 16.8344 16.3336C16.8753 16.2927 16.9275 16.2649 16.9843 16.2539C17.0412 16.2428 17.1 16.249 17.1533 16.2716L23.5699 18.8966C23.6271 18.9201 23.6753 18.961 23.7076 19.0136C23.74 19.0661 23.7548 19.1276 23.75 19.1891C23.7452 19.2507 23.721 19.3091 23.6809 19.356C23.6408 19.4029 23.5868 19.4359 23.5268 19.4502L20.9899 20.0575C20.8851 20.0825 20.7894 20.136 20.7132 20.2121C20.637 20.2882 20.5834 20.3839 20.5582 20.4885L19.9515 23.026C19.9374 23.0863 19.9045 23.1405 19.8575 23.1808C19.8105 23.2211 19.7519 23.2454 19.6902 23.2502C19.6285 23.255 19.5669 23.2401 19.5142 23.2075C19.4616 23.175 19.4207 23.1266 19.3974 23.0692L16.7724 16.6525Z" stroke="#2E3338" stroke-width="1.33" stroke-linecap="round" stroke-linejoin="round"/>
</svg>
