<svg width="36" height="36" viewBox="0 0 36 36" fill="none" xmlns="http://www.w3.org/2000/svg">
<g filter="url(#filter0_dii_3061_33137)">
<rect x="2" y="1" width="32" height="32" rx="16" fill="#2EC666"/>
<rect x="3" y="2" width="30" height="30" rx="15" stroke="url(#paint0_linear_3061_33137)" stroke-width="2"/>
<path d="M14.3335 12.3276C14.3335 11.6802 14.3335 11.3565 14.4685 11.178C14.5861 11.0226 14.7658 10.9264 14.9604 10.9148C15.1838 10.9014 15.4531 11.081 15.9918 11.4401L23.0022 16.1137C23.4473 16.4105 23.6699 16.5588 23.7475 16.7458C23.8153 16.9093 23.8153 17.0931 23.7475 17.2566C23.6699 17.4436 23.4473 17.592 23.0022 17.8887L15.9918 22.5623C15.4531 22.9215 15.1838 23.101 14.9604 23.0877C14.7658 23.0761 14.5861 22.9799 14.4685 22.8244C14.3335 22.646 14.3335 22.3222 14.3335 21.6748V12.3276Z" stroke="#FBFBFB" stroke-width="2" stroke-linecap="round" stroke-linejoin="round"/>
</g>
<defs>
<filter id="filter0_dii_3061_33137" x="0" y="0" width="36" height="36" filterUnits="userSpaceOnUse" color-interpolation-filters="sRGB">
<feFlood flood-opacity="0" result="BackgroundImageFix"/>
<feColorMatrix in="SourceAlpha" type="matrix" values="0 0 0 0 0 0 0 0 0 0 0 0 0 0 0 0 0 0 127 0" result="hardAlpha"/>
<feOffset dy="1"/>
<feGaussianBlur stdDeviation="1"/>
<feComposite in2="hardAlpha" operator="out"/>
<feColorMatrix type="matrix" values="0 0 0 0 0.0392157 0 0 0 0 0.0496732 0 0 0 0 0.0705882 0 0 0 0.05 0"/>
<feBlend mode="normal" in2="BackgroundImageFix" result="effect1_dropShadow_3061_33137"/>
<feBlend mode="normal" in="SourceGraphic" in2="effect1_dropShadow_3061_33137" result="shape"/>
<feColorMatrix in="SourceAlpha" type="matrix" values="0 0 0 0 0 0 0 0 0 0 0 0 0 0 0 0 0 0 127 0" result="hardAlpha"/>
<feOffset dy="-2"/>
<feComposite in2="hardAlpha" operator="arithmetic" k2="-1" k3="1"/>
<feColorMatrix type="matrix" values="0 0 0 0 0.0392157 0 0 0 0 0.0496732 0 0 0 0 0.0705882 0 0 0 0.05 0"/>
<feBlend mode="normal" in2="shape" result="effect2_innerShadow_3061_33137"/>
<feColorMatrix in="SourceAlpha" type="matrix" values="0 0 0 0 0 0 0 0 0 0 0 0 0 0 0 0 0 0 127 0" result="hardAlpha"/>
<feMorphology radius="1" operator="erode" in="SourceAlpha" result="effect3_innerShadow_3061_33137"/>
<feOffset/>
<feComposite in2="hardAlpha" operator="arithmetic" k2="-1" k3="1"/>
<feColorMatrix type="matrix" values="0 0 0 0 0.0392157 0 0 0 0 0.0496732 0 0 0 0 0.0705882 0 0 0 0.18 0"/>
<feBlend mode="normal" in2="effect2_innerShadow_3061_33137" result="effect3_innerShadow_3061_33137"/>
</filter>
<linearGradient id="paint0_linear_3061_33137" x1="18" y1="1" x2="18" y2="33" gradientUnits="userSpaceOnUse">
<stop stop-color="white" stop-opacity="0.12"/>
<stop offset="1" stop-color="white" stop-opacity="0"/>
</linearGradient>
</defs>
</svg>
