<svg width="16" height="16" viewBox="0 0 16 16" fill="none" xmlns="http://www.w3.org/2000/svg">
<g clip-path="url(#clip0_2565_32949)">
<g clip-path="url(#clip1_2565_32949)">
<path d="M1.3335 1.33203H2.20427C2.36828 1.33203 2.45029 1.33203 2.51628 1.36219C2.57444 1.38877 2.62373 1.43151 2.65826 1.48533C2.69745 1.54639 2.70905 1.62758 2.73225 1.78994L3.04778 3.9987M3.04778 3.9987L3.74904 9.15297C3.83803 9.80705 3.88253 10.1341 4.0389 10.3803C4.17668 10.5972 4.37422 10.7697 4.60773 10.8769C4.87274 10.9987 5.20279 10.9987 5.8629 10.9987H11.5682C12.1965 10.9987 12.5107 10.9987 12.7675 10.8856C12.9939 10.786 13.1881 10.6253 13.3283 10.4215C13.4875 10.1904 13.5462 9.88181 13.6638 9.26454L14.5462 4.63182C14.5876 4.41457 14.6083 4.30594 14.5783 4.22103C14.552 4.14654 14.5001 4.08382 14.4319 4.04404C14.3541 3.9987 14.2435 3.9987 14.0223 3.9987H3.04778ZM6.66683 13.9987C6.66683 14.3669 6.36835 14.6654 6.00016 14.6654C5.63197 14.6654 5.3335 14.3669 5.3335 13.9987C5.3335 13.6305 5.63197 13.332 6.00016 13.332C6.36835 13.332 6.66683 13.6305 6.66683 13.9987ZM12.0002 13.9987C12.0002 14.3669 11.7017 14.6654 11.3335 14.6654C10.9653 14.6654 10.6668 14.3669 10.6668 13.9987C10.6668 13.6305 10.9653 13.332 11.3335 13.332C11.7017 13.332 12.0002 13.6305 12.0002 13.9987Z" stroke="#7F7F7F" stroke-linecap="round" stroke-linejoin="round"/>
</g>
</g>
<defs>
<clipPath id="clip0_2565_32949">
<rect width="16" height="16" fill="white"/>
</clipPath>
<clipPath id="clip1_2565_32949">
<rect width="16" height="16" fill="white"/>
</clipPath>
</defs>
</svg>
