<svg width="24" height="24" viewBox="0 0 24 24" fill="none" xmlns="http://www.w3.org/2000/svg">
<path d="M9.15833 13.2596L14.85 16.5763M14.8417 7.4263L9.15833 10.743M19.5 6.16797C19.5 7.54868 18.3807 8.66797 17 8.66797C15.6193 8.66797 14.5 7.54868 14.5 6.16797C14.5 4.78726 15.6193 3.66797 17 3.66797C18.3807 3.66797 19.5 4.78726 19.5 6.16797ZM9.5 12.0013C9.5 13.382 8.38071 14.5013 7 14.5013C5.61929 14.5013 4.5 13.382 4.5 12.0013C4.5 10.6206 5.61929 9.5013 7 9.5013C8.38071 9.5013 9.5 10.6206 9.5 12.0013ZM19.5 17.8346C19.5 19.2153 18.3807 20.3346 17 20.3346C15.6193 20.3346 14.5 19.2153 14.5 17.8346C14.5 16.4539 15.6193 15.3346 17 15.3346C18.3807 15.3346 19.5 16.4539 19.5 17.8346Z" stroke="#363636" stroke-width="2" stroke-linecap="round" stroke-linejoin="round"/>
</svg>
