<svg width="32" height="32" viewBox="0 0 32 32" fill="none" xmlns="http://www.w3.org/2000/svg">
<path d="M7 12H7.2C8.88016 12 9.72024 12 10.362 11.673C10.9265 11.3854 11.3854 10.9265 11.673 10.362C12 9.72024 12 8.88016 12 7.2V7M7 20H7.2C8.88016 20 9.72024 20 10.362 20.327C10.9265 20.6146 11.3854 21.0735 11.673 21.638C12 22.2798 12 23.1198 12 24.8V25M20 7V7.2C20 8.88016 20 9.72024 20.327 10.362C20.6146 10.9265 21.0735 11.3854 21.638 11.673C22.2798 12 23.1198 12 24.8 12H25M20 25V24.8C20 23.1198 20 22.2798 20.327 21.638C20.6146 21.0735 21.0735 20.6146 21.638 20.327C22.2798 20 23.1198 20 24.8 20H25" stroke="#7F7F7F" stroke-width="2" stroke-linecap="round" stroke-linejoin="round"/>
</svg>
