<svg width="20" height="20" viewBox="0 0 20 20" fill="none" xmlns="http://www.w3.org/2000/svg">
<g clip-path="url(#clip0_2565_27217)">
<path d="M4.1665 15.8346V4.16797M13.6669 5.06764L8.80129 8.96014C8.35641 9.31604 8.13398 9.49399 8.05345 9.70897C7.98284 9.89746 7.98284 10.1051 8.05345 10.2936C8.13398 10.5086 8.35641 10.6866 8.80129 11.0425L13.6669 14.935C14.3604 15.4897 14.7071 15.7671 14.9989 15.7674C15.2527 15.7677 15.4928 15.6523 15.6511 15.454C15.8332 15.2259 15.8332 14.7819 15.8332 13.8938V6.1088C15.8332 5.22072 15.8332 4.77668 15.6511 4.54861C15.4928 4.35027 15.2527 4.23488 14.9989 4.23516C14.7071 4.23547 14.3604 4.51286 13.6669 5.06764Z" stroke="#363636" stroke-width="1.5" stroke-linecap="round" stroke-linejoin="round"/>
</g>
<defs>
<clipPath id="clip0_2565_27217">
<rect width="20" height="20" fill="white"/>
</clipPath>
</defs>
</svg>
