<svg width="20" height="20" viewBox="0 0 20 20" fill="none" xmlns="http://www.w3.org/2000/svg">
<path d="M15.833 15.8346V4.16797M6.3326 5.06764L11.1982 8.96014C11.6431 9.31604 11.8655 9.49399 11.9461 9.70897C12.0167 9.89746 12.0167 10.1051 11.9461 10.2936C11.8655 10.5086 11.6431 10.6866 11.1982 11.0425L6.3326 14.935C5.63912 15.4897 5.29239 15.7671 5.00057 15.7674C4.74679 15.7677 4.50671 15.6523 4.34839 15.454C4.16634 15.2259 4.16634 14.7819 4.16634 13.8938V6.1088C4.16634 5.22072 4.16634 4.77668 4.34839 4.54861C4.50671 4.35027 4.74679 4.23488 5.00057 4.23516C5.29239 4.23547 5.63912 4.51286 6.3326 5.06764Z" stroke="#363636" stroke-width="1.5" stroke-linecap="round" stroke-linejoin="round"/>
</svg>
