<svg width="20" height="20" viewBox="0 0 20 20" fill="none" xmlns="http://www.w3.org/2000/svg">
<g clip-path="url(#clip0_2565_27347)">
<path d="M10.0002 14.5846H10.0085M6.00016 18.3346H14.0002C14.9336 18.3346 15.4003 18.3346 15.7568 18.153C16.0704 17.9932 16.3254 17.7382 16.4852 17.4246C16.6668 17.0681 16.6668 16.6014 16.6668 15.668V4.33464C16.6668 3.40121 16.6668 2.9345 16.4852 2.57798C16.3254 2.26438 16.0704 2.00941 15.7568 1.84962C15.4003 1.66797 14.9336 1.66797 14.0002 1.66797H6.00016C5.06674 1.66797 4.60003 1.66797 4.24351 1.84962C3.92991 2.00941 3.67494 2.26438 3.51515 2.57798C3.3335 2.9345 3.3335 3.40121 3.3335 4.33464V15.668C3.3335 16.6014 3.3335 17.0681 3.51515 17.4246C3.67494 17.7382 3.92991 17.9932 4.24351 18.153C4.60003 18.3346 5.06674 18.3346 6.00016 18.3346ZM10.4168 14.5846C10.4168 14.8148 10.2303 15.0013 10.0002 15.0013C9.77004 15.0013 9.5835 14.8148 9.5835 14.5846C9.5835 14.3545 9.77004 14.168 10.0002 14.168C10.2303 14.168 10.4168 14.3545 10.4168 14.5846Z" stroke="#363636" stroke-width="1.5" stroke-linecap="round" stroke-linejoin="round"/>
</g>
<defs>
<clipPath id="clip0_2565_27347">
<rect width="20" height="20" fill="white"/>
</clipPath>
</defs>
</svg>
