<svg width="16" height="16" viewBox="0 0 16 16" fill="none" xmlns="http://www.w3.org/2000/svg">
<g clip-path="url(#clip0_2565_33033)">
<path d="M14.0002 10.668V4.8013C14.0002 4.05457 14.0002 3.6812 13.8548 3.39598C13.727 3.1451 13.523 2.94112 13.2721 2.81329C12.9869 2.66797 12.6136 2.66797 11.8668 2.66797H4.1335C3.38676 2.66797 3.01339 2.66797 2.72818 2.81329C2.47729 2.94112 2.27332 3.1451 2.14549 3.39598C2.00016 3.6812 2.00016 4.05457 2.00016 4.8013V10.668M3.11127 13.3346H12.8891C13.3024 13.3346 13.509 13.3346 13.6786 13.2892C14.1387 13.1659 14.4981 12.8065 14.6214 12.3464C14.6668 12.1768 14.6668 11.9702 14.6668 11.5569C14.6668 11.3502 14.6668 11.2469 14.6441 11.1621C14.5825 10.932 14.4028 10.7523 14.1727 10.6907C14.0879 10.668 13.9846 10.668 13.7779 10.668H2.22238C2.01572 10.668 1.91239 10.668 1.82762 10.6907C1.59756 10.7523 1.41786 10.932 1.35621 11.1621C1.3335 11.2469 1.3335 11.3502 1.3335 11.5569C1.3335 11.9702 1.3335 12.1768 1.37893 12.3464C1.50222 12.8065 1.86161 13.1659 2.32174 13.2892C2.49129 13.3346 2.69795 13.3346 3.11127 13.3346Z" stroke="#7F7F7F" stroke-linecap="round" stroke-linejoin="round"/>
</g>
<defs>
<clipPath id="clip0_2565_33033">
<rect width="16" height="16" fill="white"/>
</clipPath>
</defs>
</svg>
