<svg width="16" height="16" viewBox="0 0 16 16" fill="none" xmlns="http://www.w3.org/2000/svg">
<g clip-path="url(#clip0_2565_33012)">
<path d="M9.19997 1.33203V1.46536C9.19997 1.83873 9.19997 2.02542 9.12731 2.16802C9.06339 2.29347 8.9614 2.39545 8.83596 2.45937C8.69335 2.53203 8.50667 2.53203 8.1333 2.53203H7.86663C7.49327 2.53203 7.30658 2.53203 7.16397 2.45937C7.03853 2.39545 6.93655 2.29347 6.87263 2.16802C6.79997 2.02542 6.79997 1.83873 6.79997 1.46536V1.33203M6.26663 14.6654C7.01337 14.6654 9.7333 14.6654 9.7333 14.6654C10.48 14.6654 10.8534 14.6654 11.1386 14.52C11.3895 14.3922 11.5935 14.1882 11.7213 13.9374C11.8666 13.6521 11.8666 13.2788 11.8666 12.532V3.46536C11.8666 2.71863 11.8666 2.34526 11.7213 2.06004C11.5935 1.80916 11.3895 1.60519 11.1386 1.47736C10.8534 1.33203 10.8563 1.33203 10.5333 1.33203H5.46663C5.14072 1.33203 5.14653 1.33203 4.86131 1.47736C4.61043 1.60519 4.40646 1.80916 4.27863 2.06004C4.1333 2.34526 4.1333 2.71863 4.1333 3.46536V12.532C4.1333 13.2788 4.1333 13.6521 4.27863 13.9374C4.40646 14.1882 4.61043 14.3922 4.86131 14.52C5.14653 14.6654 5.5199 14.6654 6.26663 14.6654Z" stroke="#7F7F7F" stroke-linecap="round" stroke-linejoin="round"/>
</g>
<defs>
<clipPath id="clip0_2565_33012">
<rect width="16" height="16" fill="white"/>
</clipPath>
</defs>
</svg>
