<svg width="16" height="16" viewBox="0 0 16 16" fill="none" xmlns="http://www.w3.org/2000/svg">
<g clip-path="url(#clip0_2565_32991)">
<path d="M7.99984 11.6654H8.0065M4.79984 14.6654H11.1998C11.9466 14.6654 12.3199 14.6654 12.6052 14.52C12.856 14.3922 13.06 14.1882 13.1878 13.9374C13.3332 13.6521 13.3332 13.2788 13.3332 12.532V3.46536C13.3332 2.71863 13.3332 2.34526 13.1878 2.06004C13.06 1.80916 12.856 1.60519 12.6052 1.47736C12.3199 1.33203 11.9466 1.33203 11.1998 1.33203H4.79984C4.0531 1.33203 3.67973 1.33203 3.39452 1.47736C3.14363 1.60519 2.93966 1.80916 2.81183 2.06004C2.6665 2.34526 2.6665 2.71863 2.6665 3.46536V12.532C2.6665 13.2788 2.6665 13.6521 2.81183 13.9374C2.93966 14.1882 3.14363 14.3922 3.39452 14.52C3.67973 14.6654 4.0531 14.6654 4.79984 14.6654ZM8.33317 11.6654C8.33317 11.8495 8.18393 11.9987 7.99984 11.9987C7.81574 11.9987 7.6665 11.8495 7.6665 11.6654C7.6665 11.4813 7.81574 11.332 7.99984 11.332C8.18393 11.332 8.33317 11.4813 8.33317 11.6654Z" stroke="#7F7F7F" stroke-linecap="round" stroke-linejoin="round"/>
</g>
<defs>
<clipPath id="clip0_2565_32991">
<rect width="16" height="16" fill="white"/>
</clipPath>
</defs>
</svg>
